<?xml version="1.0" encoding="utf-8"?>
<!-- Generator: Adobe Illustrator 27.9.0, SVG Export Plug-In . SVG Version: 6.00 Build 0)  -->
<svg version="1.1" id="Ebene_1" xmlns="http://www.w3.org/2000/svg" xmlns:xlink="http://www.w3.org/1999/xlink" x="0px" y="0px"
	 viewBox="0 0 565.8 572.3" style="enable-background:new 0 0 565.8 572.3;" xml:space="preserve">
<style type="text/css">
	.st0{fill:#3F58A7;}
</style>
<path class="st0" d="M273.6,572.3c0.2-0.7-0.5-0.8-0.8-1.1c-0.8-0.9-0.4-2.5,1-3c0.6-0.2,1.2-0.1,1.8-0.2
	c30.8-1.8,57.6-13,79.9-34.2c17.4-16.6,28.6-36.8,33.8-60.4c2.5-11.5,3.2-23.2,2.2-34.9c-1.1-13.3-4.5-26.1-10-38.3
	c-0.9-2-1.1-3.8-0.5-5.9c4.5-15,8.8-30,13.3-45c0.2-0.8,0.5-1.6,0.9-2.3c0.5-1,1.8-1.2,2.7-0.5c0.5,0.5,1,1,1.4,1.6
	c10.7,14.2,18.6,29.9,23.5,47c4.4,15.5,6.1,31.3,4.9,47.4c-2.3,29.7-12.8,56.2-32.1,78.9c-21.6,25.4-48.9,41.1-81.5,47.9
	c-6.4,1.3-12.9,2.2-19.4,2.6c-2.1,0.1-4.1,0.3-6.2,0.5C283.5,572.3,278.6,572.3,273.6,572.3z"/>
<path class="st0" d="M286,0c1.6,0.2,3.3,0.3,4.9,0.5c1.4,0.2,2.2,0.8,2.2,1.7c0.1,1.2-0.9,2-2.5,2.1c-2.1,0.2-4.1,0.3-6.2,0.5
	c-26,2.5-49.2,12-69.1,28.9c-21,17.9-34.2,40.5-39.6,67.6c-1.5,7.5-2.3,15.2-2.2,22.9c0.1,16.5,3.5,32.3,10.2,47.4
	c0.2,0.5,0.4,1,0.6,1.4c0.8,1.4,0.8,2.8,0.4,4.4c-4.6,15.3-9,30.6-13.5,45.9c-0.2,0.7-0.4,1.4-0.7,2c-0.6,1.1-2,1.4-2.9,0.5
	c-0.5-0.5-1-1.1-1.4-1.6c-12.8-17.1-21.5-36-25.8-57c-1.7-8.4-2.7-16.8-2.8-25.3c-0.3-26.3,6.2-50.9,19.9-73.4
	C174.6,40.5,199,21,229.7,9.4c11.3-4.3,23-7,35-8.2c3.8-0.4,7.6-0.7,11.4-1.1C279.4,0,282.7,0,286,0z"/>
<path class="st0" d="M26,200.1c0.6-35.3,12-66.6,34.6-93.7c1.3-1.6,2.7-3.2,4.1-4.7c1-1.1,1.9-1.2,2.7-0.6c1,0.7,1.1,1.7,0.3,3
	c-0.6,0.9-1.2,1.7-1.8,2.5c-11.1,15.9-18.1,33.5-21.1,52.6c-1.3,8.3-1.7,16.7-1.2,25.1c2.9,51,36.9,91.8,82,106.1
	c2.3,0.7,4.6,1.4,6.9,1.9c2.1,0.4,3.4,1.5,4.6,3.3c5.8,8.5,11.7,16.8,17.6,25.2c3,4.3,6.1,8.7,9.1,13c0.4,0.5,0.7,1,1.1,1.5
	c1.1,1.8,0.3,3.2-1.9,3.4c-0.6,0-1.2,0-1.9,0c-14-0.5-27.6-2.9-40.9-7.3c-45.5-15.1-79.8-52.9-90.7-99.7
	C27.4,222.5,25.9,210,26,200.1z"/>
<path class="st0" d="M511.8,116c-0.1,1.5-1.9,2.2-3,1.4c-0.7-0.6-1.3-1.3-1.9-2c-7.3-8.1-15.5-15.3-24.6-21.3
	c-14.5-9.5-30.3-15.8-47.4-18.7c-10.7-1.8-21.4-2.1-32.2-1c-25.8,2.8-48.2,13-67.3,30.5c-10.2,9.3-18.4,20.2-24.8,32.4
	c-0.3,0.6-0.6,1.1-0.8,1.7c-0.5,1.2-1.4,1.9-2.7,2.4c-3.7,1.4-7.3,3-10.9,4.5c-11.1,4.5-22.3,9.1-33.4,13.6
	c-0.8,0.3-1.5,0.7-2.3,0.9c-1.2,0.3-2.3-0.7-2.3-1.9c0-0.7,0.2-1.4,0.4-2.1c4.3-16.9,11.4-32.6,21.6-46.9
	c20.8-29.1,48.8-47.4,83.6-55.2c10.8-2.4,21.7-3.2,32.7-2.9c44.6,1.2,87.1,24.2,113.5,61.3c0.5,0.8,1.1,1.5,1.5,2.3
	C511.7,115.4,511.7,115.8,511.8,116z"/>
<path class="st0" d="M426.6,173.7c51.3,0.2,97.3,27.6,121.5,71.9c8,14.6,13.2,30.1,15.9,46.5c1.4,8.4,2,16.9,1.8,25.4
	c-0.3,13.1-2.1,26-5.8,38.6c-0.2,0.8-0.5,1.6-0.8,2.4c-0.4,0.9-1.1,1.3-2,1.1c-1-0.2-1.6-1.1-1.6-2c0-0.5,0.2-1,0.3-1.5
	c1.4-8.3,2.2-16.6,1.9-25.1c-1.3-33.4-13.2-62.2-37.3-85.5c-16.4-15.8-35.9-25.8-58.2-30.3c-8.6-1.7-17.2-2.5-25.9-2.3
	c-7.3,0.2-14.5,1-21.6,2.6c-1.5,0.3-2.6,0.1-3.8-0.6c-14.1-7.9-28.2-15.8-42.3-23.7c-0.5-0.3-1.1-0.6-1.6-1c-0.8-0.7-0.8-2,0-2.7
	c0.6-0.5,1.4-0.9,2.2-1.2c9.2-4.1,18.7-7.3,28.6-9.4C407.6,174.7,417.5,173.7,426.6,173.7z"/>
<path class="st0" d="M140.4,463.9c-32.7-0.4-62.9-11.5-88.8-33.8C26.7,408.7,11,381.7,4.1,349.7c-0.5-2.4-0.9-4.9-1.4-7.3
	c-0.1-0.3-0.1-0.6-0.2-0.9c-0.1-1.1,0.4-1.9,1.4-2.2c0.9-0.2,1.8,0.2,2.2,1.2c0.3,0.7,0.4,1.4,0.6,2.1c6.4,21.9,17.6,40.8,34.2,56.5
	c16.7,15.9,36.4,26.1,59.1,30.7c10.2,2.1,20.6,2.7,30.9,1.9c23.2-1.7,44.2-9.7,62.8-23.7c1.7-1.3,3.3-1.9,5.4-1.7
	c9.1,0.6,18.2,1.2,27.3,1.7c4.9,0.3,9.7,0.6,14.6,0.9c2.3,0.1,4.5,0.4,6.8,0.5c1.6,0.1,2.8,1.7,1.5,3.3c-0.4,0.6-0.9,1.1-1.4,1.7
	c-20.5,23.9-46,39.6-76.8,46.5C161.5,462.9,151.7,463.8,140.4,463.9z"/>
<path class="st0" d="M74.9,157.6c0.3-33.5,11.2-63.2,32.3-89.1c15.3-18.8,34.2-32.7,56.5-42.2c1-0.4,2.1-0.9,3.2-1.3
	c1-0.3,1.7,0,2.1,0.7c0.5,0.9,0.3,2-0.5,2.5c-0.7,0.5-1.4,0.9-2.1,1.3c-12.7,7-24,16-33.6,26.9c-15.2,17.3-25,37.3-28.8,60
	c-6.3,37.8,5.8,75.5,32.4,102.4c2.8,2.9,5.8,5.6,8.9,8.2c1.1,0.9,1.7,2,1.9,3.4c2.1,13.2,4.3,26.4,6.4,39.6c0.4,2.8,0.9,5.5,1.4,8.3
	c0.1,0.4,0.2,0.8,0.2,1.2c0.1,1.7-1.2,2.7-2.8,2.1c-0.7-0.2-1.3-0.6-2-0.9c-9.2-4.8-17.9-10.5-25.8-17.2
	c-21.3-18-36.2-40.3-44.1-67.1C76.7,183.9,74.8,170.9,74.9,157.6z"/>
<path class="st0" d="M490.8,414.9c-0.3,32-10.3,60.6-29.8,85.9c-15.9,20.5-36,35.7-59.9,45.6c-0.8,0.3-1.5,0.7-2.3,0.9
	c-1,0.3-1.7-0.1-2.1-0.9c-0.4-0.8-0.3-1.7,0.4-2.3c0.6-0.5,1.4-0.9,2.1-1.3c7.3-4,14.1-8.7,20.5-14.1c21.9-18.7,36-42.1,41.6-70.3
	c2.2-10.8,2.7-21.8,1.6-32.8c-1.9-20.7-8.8-39.5-20.5-56.6c-6-8.8-13.2-16.5-21.4-23.3c-1.5-1.3-2.3-2.6-2.6-4.7
	c-1.5-9.8-3.2-19.6-4.8-29.4c-0.9-5.6-1.8-11.2-2.8-16.9c-0.1-0.8-0.3-1.6-0.3-2.5c0-1.3,1.1-2.1,2.3-1.8c0.7,0.2,1.4,0.5,2,0.8
	c14.4,7.4,27.3,17,38.4,28.8c17.9,19,29.5,41.4,34.9,67C489.9,396.3,490.9,405.6,490.8,414.9z"/>
<path class="st0" d="M201.8,151.6c0.5-39,14.3-72.4,42.2-99.7c18.1-17.7,39.8-29.2,64.5-35c13.1-3.1,26.4-4.3,39.8-3.7
	c23,1.2,44.7,7.4,64.8,18.6c0.5,0.3,1.1,0.6,1.6,1c0.7,0.6,0.9,1.5,0.6,2.2c-0.4,0.8-1.2,1.2-2.1,1c-0.7-0.2-1.4-0.5-2-0.7
	c-5.4-2.3-11-4.2-16.8-5.7c-6.8-1.8-13.7-3-20.8-3.6c-5.3-0.5-10.6-0.6-15.8-0.4c-56.3,2.4-98.9,40.8-111,89.4
	c-2.2,8.7-3.3,17.5-3.5,26.4c0,1.8-0.5,3.1-1.7,4.4c-10.7,11.7-21.3,23.5-31.9,35.3c-0.4,0.5-0.8,0.9-1.3,1.3
	c-1.2,1-2.7,0.6-3.2-0.9c-0.2-0.6-0.3-1.2-0.5-1.8C202.8,170.4,201.7,161.1,201.8,151.6z"/>
<path class="st0" d="M224.4,559.4c-25.3,0-49-6.2-71.1-18.4c-0.6-0.3-1.3-0.7-1.9-1.1c-1.1-0.7-1.4-1.7-0.8-2.6
	c0.5-0.8,1.4-1.2,2.4-0.8c0.7,0.2,1.3,0.6,2,0.8c7.6,3.1,15.4,5.5,23.4,7.1c12.1,2.4,24.2,3,36.5,1.9c18-1.7,34.9-7,50.4-16.5
	c28.7-17.6,46.9-43,54.5-75.9c1.6-7,2.6-14.1,2.6-21.2c0-3,1-5.2,3-7.4c10.3-11.2,20.5-22.6,30.7-33.9c0.5-0.5,1-1.1,1.5-1.5
	c1.1-0.9,2.5-0.5,3,0.9c0.3,0.7,0.4,1.4,0.5,2.1c0.7,4.3,1.4,8.6,1.9,12.9c0.6,5.6,0.9,11.2,0.8,16.8c-0.5,30.5-9.7,58.1-28.2,82.3
	C314.8,532,287.4,549,254,556.2C244.2,558.4,234.3,559.4,224.4,559.4z"/>
<path class="st0" d="M539.7,372.9c-0.5,33.3-11.2,63.7-32.2,90.3c-1.8,2.3-3.7,4.4-5.6,6.6c-0.5,0.5-1,1.1-1.5,1.5
	c-0.6,0.5-1.5,0.4-2,0c-0.7-0.5-1-1.4-0.7-2.2c0.3-0.6,0.7-1.2,1.2-1.8c2.8-4,5.4-8.1,7.8-12.3c7.4-13.4,12.3-27.6,14.5-42.7
	c5.5-38.5-7.2-76.7-35.7-103.7c-14.8-14-32.1-23.3-51.7-28.5c-0.3-0.1-0.6-0.1-0.9-0.2c-1.6-0.3-2.7-1.2-3.7-2.6
	c-5.3-7.7-10.7-15.3-16-22.9c-3.7-5.3-7.4-10.5-11.1-15.8c-0.5-0.7-1-1.3-1.3-2.1c-0.6-1.3,0.1-2.6,1.5-2.8c0.4-0.1,0.8-0.1,1.2-0.1
	c4.9,0.2,9.7,0.4,14.6,1c12.6,1.7,24.8,4.8,36.5,9.6c42.5,17.4,72.5,54.8,81.8,97.2C538.5,351.6,539.5,361.9,539.7,372.9z"/>
<path class="st0" d="M171.2,521.2c-30.9-0.5-60.3-10.7-86.3-30.8c-11.2-8.7-20.9-18.9-29.1-30.5c-0.6-0.8-1.2-1.7-1.7-2.6
	c-0.5-0.8-0.2-1.8,0.5-2.2c0.7-0.5,1.7-0.5,2.3,0c0.6,0.5,1.2,1.2,1.7,1.8c11.7,13.2,25.7,23.5,41.7,30.8
	c11.7,5.3,23.9,8.7,36.7,10.2c47.9,5.6,94.9-18.7,117.8-62.4c1.5-2.8,3.3-4.4,6.2-5.6c13.9-5.5,27.6-11.2,41.5-16.8
	c0.8-0.3,1.6-0.5,2.3-0.9c1.4-0.7,3.3,0.7,2.8,2.5c-0.2,0.6-0.3,1.2-0.4,1.8c-7.2,27-20.8,50.2-41.6,69.1
	c-18.5,16.8-40.1,27.7-64.6,32.8C191.6,520.2,182,521.1,171.2,521.2z"/>
<path class="st0" d="M426.1,108.5c30.7,0.3,60.3,10.8,85.8,31.9c26.2,21.7,42.6,49.5,49.8,82.8c0.4,1.7,0.7,3.4,1,5.2
	c0.2,1,0.3,2.1,0.3,3.1c0,0.8-0.5,1.4-1.2,1.6c-0.8,0.2-1.4,0-1.9-0.7c-0.5-0.7-0.6-1.5-0.9-2.3c-3.2-11-7.6-21.5-13.6-31.2
	c-15.6-25.1-37.2-42.8-65.3-52.4c-8.7-2.9-17.6-4.8-26.7-5.5c-30-2.5-57,5.5-81.2,23.2c-0.5,0.4-1,0.7-1.5,1.1
	c-0.8,0.7-1.8,1-2.9,0.9c-0.5-0.1-1-0.1-1.6-0.1c-9.7-0.6-19.4-1.2-29.2-1.8c-5.2-0.3-10.3-0.6-15.5-0.9c-1.4-0.1-2.9-0.2-4.3-0.4
	c-1.2-0.2-1.9-1.5-1.3-2.6c0.4-0.7,0.9-1.4,1.5-2c7.8-9.2,16.6-17.4,26.5-24.3c16.5-11.7,34.6-19.4,54.5-23.2
	C406.7,109.3,415.2,108.6,426.1,108.5z"/>
<path class="st0" d="M0.1,258.3c-0.3-14.7,1.8-28.1,5.5-41.2c0.3-1.1,0.7-2.2,1.1-3.2c0.3-0.8,1.1-1.1,1.8-1
	c0.8,0.2,1.6,0.9,1.6,1.7c0,0.8-0.1,1.7-0.2,2.5c-1.5,8.2-2.1,16.4-1.8,24.8c0.9,28.1,9.9,53.2,27.8,74.9c18,21.9,41.2,35.3,69,40.8
	c9.1,1.8,18.3,2.4,27.5,1.9c6.2-0.3,12.4-1.1,18.5-2.4c1.5-0.3,2.8-0.2,4.1,0.6c14.1,7.9,28.2,15.8,42.3,23.7c0.5,0.3,1.1,0.6,1.5,1
	c0.7,0.7,0.7,2.2-0.2,2.8c-0.7,0.5-1.4,0.8-2.2,1.2c-9,4-18.3,7.1-28,9.2c-10.4,2.2-20.9,3.4-31.5,3.2c-31-0.6-58.8-10.2-83.2-29.3
	c-25.3-19.8-41.4-45.7-49.4-76.7c-2.3-9.1-3.6-18.3-4.2-27.6C-0.1,262.5,0.1,259.9,0.1,258.3z"/>
</svg>
